HIERARCHY
ROOT hip
{
  OFFSET 0.0 0.0 0.0
  CHANNELS 6 Xposition Yposition Zposition Zrotation Yrotation Xrotation
  JOINT torso
  {
    OFFSET 0.0 0.0 0.0
    CHANNELS 3 Zrotation Xrotation Yrotation
    JOINT neck
    {
      OFFSET -31.42098999999993 328.8025209999999 74.3554680000002
      CHANNELS 3 Zrotation Xrotation Yrotation
      JOINT head
      {
        OFFSET 3.3519900000001144 303.81732099999994 206.53942900000015
        CHANNELS 3 Zrotation Xrotation Yrotation
        End Site
        {
          OFFSET 0.0 0.0 0.0
        }
      }
    }
    JOINT left_collar
    {
      OFFSET -31.42098999999993 328.8025209999999 74.3554680000002
      CHANNELS 3 Zrotation Xrotation Yrotation
      JOINT left_upper_arm
      {
        OFFSET -124.490479 -8.162841999999841 8.226441000000023
        CHANNELS 3 Zrotation Xrotation Yrotation
        JOINT left_forearm
        {
          OFFSET -253.595764 -1.5758060000000569 105.0729980000001
          CHANNELS 3 Zrotation Xrotation Yrotation
          JOINT left_hand
          {
            OFFSET -269.48803699999996 0.1478270000000066 -55.346191999999974
            CHANNELS 3 Zrotation Xrotation Yrotation
            End Site
            {
              OFFSET 0.0 0.0 0.0
            }
          }
        }
      }
    }
    JOINT right_collar
    {
      OFFSET -31.42098999999993 328.8025209999999 74.3554680000002
      CHANNELS 3 Zrotation Xrotation Yrotation
      JOINT right_upper_arm
      {
        OFFSET 162.02484099999998 0.46441600000002836 2.2303470000001653
        CHANNELS 3 Zrotation Xrotation Yrotation
        JOINT right_forearm
        {
          OFFSET 240.01246700000004 -25.835875999999985 121.34179699999959
          CHANNELS 3 Zrotation Xrotation Yrotation
          JOINT right_hand
          {
            OFFSET 252.48539699999992 18.910399999999868 -67.53466800000001
            CHANNELS 3 Zrotation Xrotation Yrotation
            End Site
            {
              OFFSET 0.0 0.0 0.0
            }
          }
        }
      }
    }
  }
}
MOTION
Frames: 14
Frame Time: 0.01
-653.6046786530428 275.7442928745048 580.9816714391435 7.046123493190229 -1.443078897327457 7.827192151223026 -0.42366105056271536 2.5925054401008176 0.3356054706323955 -0.9675628061609117 -10.791855575390978 0.8162405375791921 0.0 0.0 0.0 0.3217549351245272 0.20643666078081072 -2.702350583377566 46.932318633494404 6.554926487235494 29.634156728660386 36.97445521031262 -3.0302836123984016 -14.186032746157213 0.0 0.0 0.0 -1.0980354673844976 0.040217699234352255 3.7337627869994288 -31.57981583563189 5.456855971999277 -26.277949041470848 0.9087470884799916 -4.4591471309707265 59.073663968233284 0.0 0.0 0.0
-654.562448791867 275.82678802757243 580.3427218526223 7.046578325880257 -1.4496881533165513 8.344869204991332 -0.4416796160263373 2.5958694387941126 0.3395973218564508 -0.8504294884136911 -10.882371597516594 0.7322142054854907 0.0 0.0 0.0 0.311981323505429 0.21220453441376858 -2.799282460029359 46.94701430063391 6.531855277448813 29.691023874262083 37.00234561057225 -3.0536024000461293 -14.12388773257632 0.0 0.0 0.0 -1.1189827231937022 0.040653621301430895 3.65628496893927 -31.528080580423186 5.469255601207347 -26.2115099753172 1.3718500591802376 -4.578947441828615 59.05544081577584 0.0 0.0 0.0
-655.5065387145177 275.93581556634456 579.6617735885311 7.043063159721001 -1.45119100296583 8.863954754157705 -0.4565538867359708 2.5992130642074436 0.34294428628127116 -0.743118591837335 -10.974200817748326 0.6552723656048532 0.0 0.0 0.0 0.3032314308201142 0.21763379819471615 -2.8901318594276755 46.960909402827056 6.508267835465668 29.748727109684403 37.030379901869594 -3.07918876491477 -14.055142446446311 0.0 0.0 0.0 -1.138811376061194 0.04104080631871486 3.5830379378971964 -31.48053907973825 5.479621196822143 -26.152894499205228 1.830315187357661 -4.69736941121855 59.036440990063554 0.0 0.0 0.0
-656.4359080307727 276.0726304543722 578.9386791812246 7.03589316333246 -1.447382174832995 9.38366540668065 -0.4682509031970964 2.602415085218839 0.3456287257635977 -0.646037289155532 -11.067091650511557 0.5857176345442734 0.0 0.0 0.0 0.2958132343058963 0.2227091037836858 -2.9742050447683437 46.97356998980801 6.484425463716649 29.806530819515316 37.05786273186306 -3.1068972016807077 -13.980062629221626 0.0 0.0 0.0 -1.1575831533821164 0.04138778582857459 3.5142203503485185 -31.437522182238112 5.48806716504199 -26.102085719299097 2.2838239277155616 -4.814356272463137 59.01700475845031 0.0 0.0 0.0
-657.3496886607896 276.23797797294884 578.1737915095858 7.025446423493431 -1.4381744719017153 9.903308651488132 -0.47680789436367077 2.605370392235192 0.3476488437061751 -0.5594225868369396 -11.160729403139186 0.5237291637433557 0.0 0.0 0.0 0.2900000805623383 0.2274227736807102 -3.05095792465087 46.98460393430606 6.460595830143185 29.863702865189566 37.08417907632556 -3.1365526887482895 -13.899015984743645 0.0 0.0 0.0 -1.1753788413787611 0.04170289581781559 3.44992728506441 -31.399291056456267 5.494735160281633 -26.05894725180011 2.732128303726503 -4.9298692898518 58.99741048056476 0.0 0.0 0.0
-658.24717850021 276.43206087996373 577.3679793995948 7.012152483675523 -1.4236003052523096 10.422280302221711 -0.4823274555684456 2.6079955608685936 0.3490181705494257 -0.48334147887662143 -11.254746429270941 0.46936255324970205 0.0 0.0 0.0 0.28601633153532674 0.23177369678052465 -3.1200054674946824 46.99367442227867 6.437044151378701 29.919538518361403 37.108808445447124 -3.167952742486025 -13.8124693505786 0.0 0.0 0.0 -1.1922906641519562 0.04199385989269275 3.390154597542202 -31.366032812632465 5.499793108479519 -26.02322132973467 3.1750426417986968 -5.043883669051536 58.977870040804945 0.0 0.0 0.0
-659.1278298970195 276.6545178694129 576.5226305186721 6.996479279302749 -1.4038096374304845 10.940058148583011 -0.4849711451515553 2.6102335345936822 0.34976465567993453 -0.4176942785628006 -11.348734216511591 0.4225520336038402 0.0 0.0 0.0 0.28402483196208256 0.23576602433717084 -3.181125762280962 47.00051211989519 6.414024256731502 29.97338398097395 37.1313362627008 -3.2008700161266814 -13.720984109005617 0.0 0.0 0.0 -1.2084138749930118 0.04226741767639956 3.334806944932573 -31.337857697492133 5.503433895342937 -25.994529203189224 3.612433670898036 -5.156384137434413 58.958525843131326 0.0 0.0 0.0
-659.9912340046095 276.90441468568036 575.6396411470672 6.9789189593332415 -1.3790644105471224 11.456192395365024 -0.4849518206242841 2.6120572766208117 0.3499294208622237 -0.3622209410311001 -11.442257072240544 0.3831147994971748 0.0 0.0 0.0 0.28411680065621053 0.2394077801006583 -3.234258889142323 47.00492549527227 6.391769928725867 30.024658502940806 37.15146197657556 -3.2350554581173037 -13.625209674616894 0.0 0.0 0.0 -1.2238379946158824 0.04252900978015228 3.2837090496838943 -31.31479784861028 5.50587369279966 -25.972373929057706 4.044209378821751 -5.267360341976086 58.93944927924805 0.0 0.0 0.0
-660.8371022086726 277.1802489354102 574.7213929308381 6.959973097320917 -1.3497296331698923 11.970293665270384 -0.4825250220244459 2.613472236642585 0.34956522495822756 -0.31651015837167507 -11.534867004619263 0.35075735929706264 0.0 0.0 0.0 0.28630461434594756 0.2427094917318291 -3.279500964631026 47.00680888428574 6.370486923545053 30.072874145458684 37.169003552081634 -3.270242019446156 -13.525874939155585 0.0 0.0 0.0 -1.2386381496233583 0.042782526907271134 3.2366195770394346 -31.296807596488044 5.507349917846291 -25.956145566012943 4.470307031743063 -5.376802205201205 58.9206405543577 0.0 0.0 0.0
-661.6652458832415 277.47996925333075 573.7707172272933 6.940137801675932 -1.316261403991161 12.482019476059055 -0.4779796928692269 2.6145174864860175 0.34873468475657377 -0.2800109968894031 -11.626119323515335 0.3250837563562183 0.0 0.0 0.0 0.2905177941765809 0.24568293232794966 -3.3170938570608106 47.00614802577045 6.350346070051201 30.117652298669434 37.18389809239446 -3.306148868350836 -13.423777622341909 0.0 0.0 0.0 -1.2528669614720436 0.043030127716897265 3.1932468515329964 -31.28376529603179 5.508118840920721 -25.94512869955915 4.890680758922202 -5.48469537082931 58.902029758877745 0.0 0.0 0.0
-662.4755557107453 277.8010090353409 572.7908481213626 6.9198892315943334 -1.2791922658853592 12.991060169532517 -0.4716285110753541 2.615265413058046 0.3475082943117035 -0.25204684072715333 -11.715588416839418 0.3056055124512997 0.0 0.0 0.0 0.29660233217925347 0.24834003467586838 -3.3474111376746563 47.00302293781189 6.331477822310341 30.158736156480632 37.19619846612675 -3.3424860355864285 -13.319771571205191 0.0 0.0 0.0 -1.2665474143348239 0.04327212806683732 3.153265545697982 -31.27547665163813 5.50845287722441 -25.938512142201372 5.305289093611918 -5.591016864651887 58.883479102773826 0.0 0.0 0.0
-663.267981704792 278.14033446585097 571.7853656070017 6.899670006593158 -1.2391144073517872 13.497125256897238 -0.46379808692178454 2.615819924672647 0.345962286913143 -0.2318313978814424 -11.802883109100778 0.2917531340252143 0.0 0.0 0.0 0.304323321647414 0.2506920116443777 -3.3709408657860616 46.99760814357767 6.313968584180256 30.195998503619908 37.20606597128057 -3.3789593763892065 -13.214752170635535 0.0 0.0 0.0 -1.2796670860010535 0.0435069628104072 3.1163334585466407 -31.271679474554787 5.508637600876808 -25.93540059713411 5.714082852102528 -5.695731093656487 58.864786264338505 0.0 0.0 0.0
-664.0425149108714 278.49450604597945 570.7581307842355 6.879876959254377 -1.196661338847446 13.999931057526377 -0.4548192709984788 2.616313212323682 0.3441763880791151 -0.21848650731734412 -11.8876609892755 0.2828890038506851 0.0 0.0 0.0 0.3133706976677207 0.2527486891498387 -3.38826582448694 46.99017036184135 6.29785903343839 30.22944438130084 37.21375924874628 -3.41527570188745 -13.109640161702933 0.0 0.0 0.0 -1.292174057929548 0.04373121993013224 3.0821075564904032 -31.272049783966665 5.508968524082543 -25.93482803231202 6.11699372732493 -5.798786305774918 58.84568882941696 0.0 0.0 0.0
-664.7991715410787 278.85975228838777 569.7132152123845 6.860850619407049 -1.152488739997809 14.499190370146595 -0.445017795989021 2.6169011757226186 0.3422315103893857 -0.21106145238930918 -11.96964109407606 0.27832144948272386 0.0 0.0 0.0 0.3233677763148954 0.2545180384368882 -3.400041843785588 46.98106383558184 6.283144560206928 30.259208437161444 37.21961984409609 -3.4511479078051712 -13.005364294235218 0.0 0.0 0.0 -1.3039747399552788 0.04393974527454507 3.0502585457223677 -31.276209137274908 5.50974769182898 -25.93577246300435 6.513923977161511 -5.900111632655017 58.82586979516631 0.0 0.0 0.0
